<svg width="25.000000" height="25.000000" viewBox="0 0 25 25" fill="none" xmlns="http://www.w3.org/2000/svg" xmlns:xlink="http://www.w3.org/1999/xlink">
	<desc>
			Created with Pixso.
	</desc>
	<defs>
		<clipPath id="clip310_618">
			<rect id="jam:shopping-cart" rx="0.000000" width="24.000000" height="24.000000" transform="matrix(-1 0 0 1 25.5 0.5)" fill="white" fill-opacity="0"/>
		</clipPath>
	</defs>
	<rect id="jam:shopping-cart" rx="0.000000" width="24.000000" height="24.000000" transform="matrix(-1 0 0 1 25.5 0.5)" fill="#FFFFFF" fill-opacity="0"/>
	<g clip-path="url(#clip310_618)">
		<path id="Vector" d="M14.58 20.83C15.13 20.83 15.66 20.61 16.05 20.22C16.44 19.83 16.66 19.3 16.66 18.75C16.66 18.19 16.44 17.66 16.05 17.27C15.66 16.88 15.13 16.66 14.58 16.66C14.03 16.66 13.5 16.88 13.11 17.27C12.71 17.66 12.5 18.19 12.5 18.75C12.5 19.3 12.71 19.83 13.11 20.22C13.5 20.61 14.03 20.83 14.58 20.83ZM7.29 20.83C7.84 20.83 8.37 20.61 8.76 20.22C9.15 19.83 9.37 19.3 9.37 18.75C9.37 18.19 9.15 17.66 8.76 17.27C8.37 16.88 7.84 16.66 7.29 16.66C6.73 16.66 6.2 16.88 5.81 17.27C5.42 17.66 5.2 18.19 5.2 18.75C5.2 19.3 5.42 19.83 5.81 20.22C6.2 20.61 6.73 20.83 7.29 20.83ZM20.87 6.16C21.13 6.16 21.37 6.05 21.56 5.86C21.74 5.67 21.84 5.42 21.84 5.16C21.84 4.9 21.74 4.65 21.56 4.47C21.37 4.28 21.13 4.17 20.87 4.16L19.67 4.16C18.73 4.16 17.92 4.81 17.71 5.73L16.41 11.61C16.2 12.52 15.39 13.18 14.45 13.18L6.63 13.18L5.12 7.17L14.86 7.17C15.12 7.15 15.36 7.04 15.54 6.86C15.72 6.67 15.82 6.42 15.82 6.16C15.82 5.91 15.72 5.66 15.54 5.47C15.36 5.29 15.12 5.18 14.86 5.16L5.12 5.16C4.82 5.16 4.52 5.23 4.25 5.37C3.97 5.5 3.73 5.69 3.54 5.93C3.36 6.17 3.23 6.45 3.16 6.75C3.1 7.05 3.11 7.36 3.18 7.65L4.68 13.66C4.79 14.1 5.04 14.48 5.39 14.76C5.75 15.03 6.18 15.18 6.63 15.18L14.45 15.18C15.36 15.18 16.25 14.87 16.96 14.3C17.67 13.73 18.17 12.93 18.36 12.04L19.67 6.16L20.87 6.16Z" fill="#FFFFFF" fill-opacity="1.000000" fill-rule="nonzero"/>
	</g>
</svg>
