<svg width="15.366211" height="15.360107" viewBox="0 0 15.3662 15.3601" fill="none" xmlns="http://www.w3.org/2000/svg" xmlns:xlink="http://www.w3.org/1999/xlink">
	<desc>
			Created with Pixso.
	</desc>
	<defs/>
	<path id="Vector" d="M11.53 10.41C12.52 9.14 12.99 7.54 12.84 5.93C12.68 4.33 11.93 2.84 10.72 1.78C9.51 0.71 7.94 0.15 6.33 0.2C4.72 0.25 3.19 0.91 2.05 2.05C0.91 3.19 0.25 4.72 0.2 6.33C0.15 7.94 0.71 9.51 1.78 10.72C2.85 11.93 4.33 12.68 5.94 12.83C7.54 12.99 9.14 12.52 10.42 11.53L10.45 11.56L13.81 14.92C13.88 15 13.97 15.05 14.07 15.09C14.16 15.13 14.27 15.16 14.37 15.16C14.47 15.16 14.58 15.13 14.67 15.09C14.77 15.05 14.86 15 14.93 14.92C15 14.85 15.06 14.76 15.1 14.67C15.14 14.57 15.16 14.47 15.16 14.36C15.16 14.26 15.14 14.16 15.1 14.06C15.06 13.96 15 13.88 14.93 13.8L11.57 10.44C11.56 10.43 11.55 10.42 11.53 10.41ZM9.89 3.17C10.34 3.61 10.69 4.13 10.94 4.71C11.18 5.29 11.31 5.91 11.31 6.53C11.31 7.16 11.19 7.78 10.95 8.36C10.71 8.94 10.36 9.47 9.92 9.91C9.47 10.36 8.95 10.71 8.37 10.95C7.79 11.18 7.17 11.31 6.54 11.3C5.91 11.3 5.29 11.17 4.72 10.93C4.14 10.69 3.61 10.33 3.17 9.88C2.29 8.99 1.8 7.79 1.81 6.53C1.81 5.28 2.31 4.08 3.2 3.19C4.09 2.31 5.29 1.81 6.54 1.8C7.79 1.8 9 2.29 9.89 3.17Z" fill="#FFFFFF" fill-opacity="1.000000" fill-rule="evenodd"/>
	<path id="Vector" d="M13.04 7.14Q13.09 6.54 13.03 5.92Q12.98 5.3 12.81 4.71Q12.63 4.12 12.35 3.56Q12.07 3.01 11.69 2.53Q11.32 2.04 10.85 1.63Q10.38 1.22 9.86 0.91Q9.33 0.59 8.75 0.38Q8.16 0.17 7.55 0.07Q6.95 -0.02 6.33 0Q5.7 0.02 5.11 0.15Q4.51 0.28 3.94 0.53Q3.37 0.78 2.86 1.12Q2.35 1.47 1.91 1.91Q1.47 2.35 1.13 2.85Q0.78 3.36 0.53 3.93Q0.29 4.5 0.15 5.1Q0.02 5.7 0 6.32Q-0.02 6.95 0.07 7.55Q0.17 8.16 0.38 8.74Q0.59 9.33 0.9 9.86Q1.22 10.38 1.63 10.85Q2.04 11.32 2.53 11.69Q3.01 12.07 3.57 12.35Q4.12 12.63 4.71 12.81Q5.3 12.98 5.92 13.03Q6.54 13.09 7.15 13.03Q7.76 12.98 8.36 12.8Q8.96 12.63 9.5 12.35Q9.97 12.11 10.4 11.79L13.67 15.06Q13.74 15.13 13.82 15.19Q13.9 15.24 13.99 15.28Q14.08 15.32 14.18 15.34Q14.27 15.36 14.37 15.36Q14.47 15.36 14.56 15.34Q14.66 15.32 14.75 15.28Q14.84 15.24 14.92 15.19Q15 15.13 15.07 15.06Q15.14 14.99 15.19 14.91Q15.25 14.83 15.29 14.74Q15.32 14.65 15.34 14.56Q15.36 14.46 15.36 14.36Q15.36 14.26 15.34 14.17Q15.32 14.07 15.29 13.98Q15.25 13.89 15.19 13.81Q15.14 13.73 15.07 13.66L11.8 10.39Q12.11 9.96 12.35 9.5Q12.63 8.95 12.8 8.35Q12.98 7.75 13.04 7.14ZM11.53 10.41C12.52 9.14 12.99 7.54 12.84 5.93C12.68 4.33 11.93 2.84 10.72 1.78C9.51 0.71 7.94 0.15 6.33 0.2C4.72 0.25 3.19 0.91 2.05 2.05C0.91 3.19 0.25 4.72 0.2 6.33C0.15 7.94 0.71 9.51 1.78 10.72C2.85 11.93 4.33 12.68 5.94 12.83C7.54 12.99 9.14 12.52 10.42 11.53L10.45 11.56L13.81 14.92C13.88 15 13.97 15.05 14.07 15.09C14.16 15.13 14.27 15.16 14.37 15.16C14.47 15.16 14.58 15.13 14.67 15.09C14.77 15.05 14.86 15 14.93 14.92C15 14.85 15.06 14.76 15.1 14.67C15.14 14.57 15.16 14.47 15.16 14.36C15.16 14.26 15.14 14.16 15.1 14.06C15.06 13.96 15 13.88 14.93 13.8L11.57 10.44C11.56 10.43 11.55 10.42 11.53 10.41ZM9.89 3.17C10.34 3.61 10.69 4.13 10.94 4.71C11.18 5.29 11.31 5.91 11.31 6.53C11.31 7.16 11.19 7.78 10.95 8.36C10.71 8.94 10.36 9.47 9.92 9.91C9.47 10.36 8.95 10.71 8.37 10.95C7.79 11.18 7.17 11.31 6.54 11.3C5.91 11.3 5.29 11.17 4.72 10.93C4.14 10.69 3.61 10.33 3.17 9.88C2.29 8.99 1.8 7.79 1.81 6.53C1.81 5.28 2.31 4.08 3.2 3.19C4.09 2.31 5.29 1.81 6.54 1.8C7.79 1.8 9 2.29 9.89 3.17ZM10.33 4Q10.58 4.37 10.75 4.79Q10.93 5.21 11.02 5.64Q11.11 6.08 11.11 6.54Q11.11 6.99 11.03 7.43Q10.94 7.87 10.77 8.29Q10.59 8.71 10.35 9.08Q10.1 9.45 9.78 9.77Q9.46 10.09 9.08 10.34Q8.71 10.59 8.29 10.76Q7.87 10.93 7.43 11.02Q7 11.11 6.54 11.1Q6.09 11.1 5.65 11.01Q5.21 10.92 4.79 10.75Q4.37 10.57 4 10.32Q3.64 10.07 3.32 9.74Q3 9.42 2.76 9.05Q2.52 8.69 2.35 8.27Q2.18 7.85 2.09 7.42Q2.01 6.99 2.01 6.54Q2.01 6.08 2.1 5.65Q2.19 5.22 2.36 4.8Q2.53 4.39 2.78 4.02Q3.02 3.65 3.34 3.34Q3.66 3.02 4.03 2.77Q4.39 2.53 4.81 2.35Q5.23 2.18 5.66 2.09Q6.09 2.01 6.54 2Q6.99 2 7.42 2.09Q7.86 2.17 8.28 2.34Q8.69 2.51 9.06 2.75Q9.43 2.99 9.75 3.31Q10.07 3.63 10.33 4Z" fill="#FFFFFF" fill-opacity="1.000000" fill-rule="evenodd"/>
</svg>
